<?xml version="1.0" standalone="no"?>
<!DOCTYPE svg PUBLIC "-//W3C//DTD SVG 20010904//EN"
 "http://www.w3.org/TR/2001/REC-SVG-20010904/DTD/svg10.dtd">
<svg version="1.0" xmlns="http://www.w3.org/2000/svg"
 width="500.000000pt" height="500.000000pt" viewBox="0 0 500.000000 500.000000"
 preserveAspectRatio="xMidYMid meet">

<g transform="translate(0.000000,500.000000) scale(0.100000,-0.100000)"
fill="#000000" stroke="none">
<path d="M3044 4446 c-17 -8 -46 -32 -64 -54 -17 -22 -44 -43 -59 -47 -30 -7
-163 -140 -203 -202 -30 -46 -42 -51 -74 -29 -35 25 -326 146 -350 146 -18 0
-33 -14 -57 -52 -123 -192 -232 -354 -283 -419 -190 -245 -447 -489 -799 -758
-398 -305 -607 -517 -710 -723 -47 -94 -53 -120 -32 -138 6 -6 93 -58 192
-115 99 -57 231 -136 294 -177 63 -40 143 -89 177 -108 108 -59 196 -112 273
-162 40 -26 77 -48 82 -48 5 0 72 -40 149 -90 77 -49 193 -119 257 -156 65
-37 132 -77 148 -89 26 -19 210 -130 256 -155 74 -39 199 -8 479 123 144 67
346 190 495 302 119 89 175 140 271 246 67 74 140 157 163 186 22 28 45 54 50
58 6 3 45 50 88 103 43 53 118 147 168 207 50 61 111 139 136 175 25 36 75
106 110 155 36 50 89 133 118 185 30 52 73 127 96 165 23 39 57 98 74 133 l32
63 -68 30 c-166 74 -283 134 -283 145 0 23 12 44 26 44 25 0 94 75 94 103 0
17 10 33 30 47 87 62 86 195 -1 294 -100 114 -243 124 -334 23 -22 -24 -52
-47 -67 -51 -15 -3 -40 -23 -55 -44 -15 -20 -51 -59 -79 -87 -28 -27 -54 -57
-56 -65 -4 -12 -23 -6 -94 27 -390 183 -468 221 -471 229 -3 10 21 36 79 84
21 18 42 47 48 68 7 20 22 46 35 57 36 32 55 79 55 137 0 66 -25 121 -76 172
-21 22 -57 47 -79 57 -47 22 -137 24 -181 5z m146 -54 c45 -25 53 -46 12 -38
-22 5 -31 3 -35 -8 -8 -20 -51 -21 -71 -1 -17 17 -52 20 -61 5 -12 -19 -26
-10 -15 10 26 48 110 64 170 32z m-153 -113 c43 -16 73 -37 116 -80 32 -33 55
-64 52 -69 -3 -6 -2 -10 4 -10 6 0 8 -7 5 -15 -4 -8 -1 -15 5 -15 6 0 11 -4
11 -9 0 -15 -50 14 -67 39 -29 41 -173 140 -214 146 -21 4 -39 10 -39 14 0 27
52 26 127 -1z m45 -152 c61 -64 99 -123 97 -154 0 -10 -8 0 -18 22 -25 56
-138 158 -221 200 -67 34 -78 44 -64 58 15 15 149 -67 206 -126z m-599 -1 c64
-31 122 -56 127 -56 24 0 5 -28 -62 -95 -428 -418 -601 -585 -682 -656 -78
-68 -98 -92 -107 -124 -6 -22 -30 -89 -54 -150 -23 -60 -59 -158 -78 -217 -52
-158 -61 -156 248 -45 280 100 252 93 283 68 43 -35 88 -52 113 -43 19 8 12
13 -52 40 -41 17 -75 37 -77 45 -2 8 36 54 84 101 73 73 88 84 98 71 6 -8 43
-28 81 -44 39 -16 71 -37 73 -45 4 -17 29 -21 51 -7 7 5 10 14 6 21 -4 6 1 17
11 25 11 8 15 15 10 15 -9 0 18 27 103 104 43 38 45 39 71 24 22 -12 30 -13
44 -3 15 12 13 14 -18 25 -33 10 -35 13 -24 33 13 26 65 87 70 83 1 -1 11 5
20 15 13 14 14 18 3 23 -15 5 -58 -32 -101 -89 -28 -37 -47 -37 -97 -2 -16 11
-46 25 -68 31 l-39 12 95 96 96 97 72 -38 c40 -21 71 -43 71 -47 -1 -5 -5 -20
-9 -34 l-7 -25 27 26 27 26 48 -26 c46 -24 50 -25 66 -10 15 16 15 17 -7 24
-38 11 -247 113 -253 123 -3 5 62 76 144 158 148 147 157 153 222 155 9 0 74
-27 143 -60 70 -34 129 -61 132 -61 5 0 80 -34 211 -97 l73 -35 -169 -166
c-448 -442 -791 -774 -831 -804 -40 -30 -46 -41 -66 -113 -13 -44 -44 -134
-69 -200 -86 -220 -88 -227 -72 -244 13 -12 32 -8 153 33 202 70 197 71 83
-23 l-25 -20 26 -1 c20 0 36 12 63 47 20 25 36 50 36 54 0 4 37 22 83 39 45
17 96 45 113 61 30 29 31 29 48 10 10 -10 47 -33 84 -51 36 -17 79 -41 94 -52
25 -17 27 -22 16 -36 -11 -13 -11 -14 2 -7 8 5 21 10 28 11 28 5 43 14 40 27
-2 7 15 32 37 56 22 24 39 48 37 53 -1 5 2 7 7 4 5 -4 18 5 28 19 52 74 41 71
110 31 63 -37 87 -43 98 -26 3 6 -15 19 -40 30 -26 11 -58 29 -71 39 l-23 18
25 24 c15 13 56 61 92 106 36 46 66 83 67 83 6 0 164 -73 196 -90 20 -11 45
-21 55 -23 24 -3 44 -16 44 -27 0 -5 -22 -35 -48 -67 -26 -32 -62 -78 -79
-103 -17 -25 -41 -55 -54 -66 -13 -12 -51 -57 -84 -100 -33 -42 -71 -89 -85
-103 -14 -14 -65 -72 -113 -128 -110 -128 -253 -264 -301 -287 -105 -50 -325
-44 -522 15 -53 16 -146 11 -180 -10 -31 -19 -66 -92 -109 -231 -28 -89 -65
-173 -87 -197 l-21 -22 -41 21 c-22 11 -107 63 -188 115 -81 51 -155 96 -165
100 -10 3 -72 41 -138 83 -66 42 -169 105 -230 140 -60 34 -111 66 -113 71 -2
5 -8 9 -14 9 -5 0 -42 21 -81 46 -63 40 -163 99 -245 143 -14 8 -71 41 -128
75 -56 34 -116 69 -133 78 l-32 17 20 39 c11 21 39 62 63 92 24 29 62 78 84
107 23 30 124 133 225 230 101 96 188 181 192 189 4 8 12 14 16 14 19 0 286
258 277 267 -4 4 -39 -25 -79 -63 -40 -39 -88 -83 -107 -98 -54 -43 -228 -207
-389 -366 -165 -163 -332 -374 -314 -395 5 -5 -3 -2 -17 6 -14 9 -82 48 -152
88 -71 40 -130 76 -133 80 -2 5 13 44 34 87 78 160 276 371 542 576 52 40 105
83 119 96 14 12 50 39 80 60 30 20 87 66 125 101 39 35 88 77 110 93 22 16 69
57 105 92 36 34 97 91 135 125 39 35 75 71 80 81 6 10 43 53 83 95 40 43 81
89 90 104 33 53 76 101 89 101 7 0 13 7 13 17 0 15 45 88 187 305 l44 68 32
-14 c18 -8 85 -39 150 -70z m450 29 c56 -27 97 -67 142 -140 18 -30 18 -30 -2
-12 -11 9 -23 17 -27 17 -5 0 -5 -8 -2 -17 3 -10 -9 -1 -28 19 -32 36 -193
128 -224 128 -12 0 -11 4 4 21 23 26 56 22 137 -16z m-62 -111 c21 -20 48 -38
61 -39 12 -1 24 -7 26 -14 6 -17 -871 -882 -882 -870 -6 5 -34 9 -63 9 -48 0
-54 3 -63 26 -6 14 -10 36 -10 50 0 22 -4 24 -47 24 l-48 1 40 32 c46 37 187
169 290 272 154 154 453 444 517 501 66 59 70 61 105 54 20 -5 52 -25 74 -46z
m359 -11 c0 -24 -15 -14 -27 18 -12 31 -12 31 7 14 11 -10 20 -24 20 -32z
m-124 -75 c7 -22 -4 -93 -13 -84 -3 3 -13 27 -22 53 -16 48 -16 48 6 49 14 1
25 -5 29 -18z m1068 -98 c21 -4 46 -16 55 -26 15 -15 14 -16 -18 -10 -27 5
-37 2 -48 -14 -8 -11 -22 -20 -32 -20 -22 0 -45 25 -36 39 3 6 -12 4 -35 -4
-40 -14 -52 -8 -26 14 33 27 83 35 140 21z m-128 -119 c44 -20 119 -82 135
-112 5 -10 7 -30 3 -43 l-6 -25 -30 35 c-56 64 -188 136 -230 126 -21 -4 -23
9 -6 26 18 18 87 14 134 -7z m-65 -72 c57 -28 117 -80 140 -121 15 -27 -19
-11 -61 29 -19 18 -68 50 -107 70 -40 20 -73 40 -73 45 0 17 42 7 101 -23z
m-55 -48 c40 -19 75 -45 100 -75 38 -46 49 -68 29 -63 -5 1 -9 5 -8 9 2 4 -5
4 -14 1 -11 -4 -13 -8 -5 -11 7 -2 12 -8 12 -14 0 -6 -18 8 -40 30 -40 40
-165 112 -194 112 -19 0 -21 11 -4 28 19 19 59 14 124 -17z m-121 -70 c3 -5
-4 -16 -15 -24 -18 -13 -19 -16 -5 -27 18 -15 20 -41 3 -58 -15 -15 -54 -16
-63 -2 -9 14 -20 12 -46 -8 l-22 -19 24 1 c31 1 40 -41 13 -61 -27 -20 -43
-16 -50 12 -6 25 -7 25 -25 9 -18 -16 -18 -17 3 -33 17 -15 19 -21 9 -39 -13
-25 -46 -29 -58 -7 -8 13 -12 13 -32 -2 l-24 -16 21 -8 c26 -10 28 -35 5 -61
-21 -24 -40 -23 -53 3 -11 20 -12 20 -31 3 -17 -16 -18 -19 -4 -26 19 -11 19
-42 0 -58 -18 -15 -45 -6 -45 15 0 14 -3 14 -24 -2 l-25 -18 21 -16 c14 -11
18 -22 14 -37 -9 -29 -43 -38 -65 -18 -16 14 -20 14 -30 2 -9 -11 -8 -15 4
-20 18 -7 20 -37 3 -54 -19 -19 -46 -14 -54 10 l-7 22 -19 -24 c-17 -21 -17
-25 -4 -32 20 -11 21 -52 2 -67 -11 -9 -20 -10 -35 -1 -25 13 -26 27 -4 54 9
12 1 5 -18 -14 -30 -31 -32 -36 -16 -42 13 -6 17 -16 15 -35 -2 -22 -9 -29
-30 -31 -27 -3 -35 8 -29 43 1 6 -9 -1 -22 -15 -22 -22 -23 -27 -10 -37 8 -6
13 -23 11 -40 -3 -24 -7 -28 -33 -28 -25 0 -30 4 -29 23 1 22 -1 21 -28 -8
-32 -36 -34 -40 -13 -40 21 0 29 -24 15 -49 -13 -25 -46 -27 -70 -6 -15 14
-19 13 -35 -5 -17 -19 -17 -21 -1 -33 15 -11 15 -15 2 -32 -12 -17 -17 -18
-42 -6 -16 7 -30 9 -31 4 -9 -24 -23 -31 -73 -38 l-55 -7 54 41 c30 22 62 49
71 58 17 18 446 437 763 745 165 161 203 188 222 159z m422 -58 c-13 -13 -15
-12 -19 11 -3 14 -2 23 3 21 4 -3 11 0 16 7 5 10 9 8 11 -6 2 -10 -3 -25 -11
-33z m-62 -24 c10 -30 0 -33 -13 -4 -6 14 -7 25 -2 25 5 0 12 -9 15 -21z
m-101 -31 c-3 -4 0 -8 5 -8 6 0 11 5 11 11 0 8 5 7 16 -1 10 -9 14 -24 11 -48
-8 -52 -23 -60 -32 -15 -3 21 -13 45 -21 54 -12 14 -12 16 1 16 8 0 12 -4 9
-9z m-1284 -152 c0 -2 -8 -10 -17 -17 -16 -13 -17 -12 -4 4 13 16 21 21 21 13z
m1496 -67 c87 -39 161 -73 163 -75 6 -5 -31 -72 -79 -144 -20 -30 -53 -87 -74
-126 -20 -39 -49 -85 -64 -102 l-27 -31 -69 35 c-38 19 -77 34 -87 34 -41 0
-24 -20 47 -56 42 -22 78 -45 81 -51 7 -18 -147 -237 -180 -257 -14 -9 -20 -7
-27 5 -5 9 -56 39 -112 67 -57 28 -112 58 -123 66 -19 15 -19 17 -2 30 10 8
14 17 9 20 -6 3 -12 -1 -16 -9 -3 -8 -16 -15 -30 -15 -24 0 -39 -13 -42 -37
-2 -14 -128 -159 -165 -190 -21 -18 -28 -20 -40 -9 -21 19 -133 66 -158 66
-37 0 -13 -19 75 -60 l85 -39 -53 -68 c-29 -37 -69 -83 -89 -101 l-37 -33 -35
24 c-19 13 -69 39 -111 58 -42 19 -76 39 -76 45 0 7 148 160 330 340 181 181
335 335 342 342 7 8 83 83 168 168 135 135 159 154 187 154 17 0 35 5 38 10 3
6 7 10 9 10 1 0 74 -32 162 -71z m-1679 5 c40 -16 73 -32 73 -36 0 -3 -14 -20
-31 -37 -17 -18 -27 -36 -23 -42 4 -7 3 -9 -3 -6 -14 9 -75 -61 -67 -75 4 -6
3 -8 -4 -4 -6 3 -13 2 -17 -4 -3 -5 -13 -10 -22 -10 -18 0 -172 72 -173 81 0
3 39 45 86 93 57 58 90 84 97 78 7 -5 45 -22 84 -38z m-701 -86 c10 -49 37
-68 96 -68 36 0 37 -1 28 -26 -6 -14 -10 -40 -10 -59 0 -18 -3 -35 -7 -38 -5
-2 -3 -3 3 -1 13 3 34 -15 34 -28 0 -4 -6 -8 -12 -8 -7 0 -47 -15 -88 -33
l-74 -33 -21 41 c-18 36 -33 48 -103 82 -3 1 57 191 65 206 2 4 21 7 42 7 37
0 38 -2 47 -42z m-172 -275 c-13 -25 -27 -49 -31 -52 -3 -3 -4 -1 -1 4 3 6 11
29 17 53 7 23 18 42 25 42 10 0 7 -13 -10 -47z m1031 -404 c8 -47 36 -69 85
-69 l36 0 -4 -67 c-4 -56 -2 -69 14 -80 10 -7 15 -13 12 -13 -3 0 -43 -13 -89
-30 -54 -19 -87 -26 -93 -20 -7 7 -4 10 6 10 9 0 18 7 22 15 4 12 2 13 -13 5
-16 -8 -26 -3 -54 25 -19 19 -44 35 -56 35 -12 0 -21 3 -21 8 0 4 14 50 31
102 18 52 33 100 34 105 2 6 21 11 43 11 40 1 41 0 47 -37z m35 -964 c97 -21
144 -26 208 -23 45 3 82 4 82 3 0 -1 -27 -19 -61 -40 -132 -82 -463 -247 -563
-281 -80 -27 -93 -29 -77 -11 6 8 40 92 76 188 36 96 73 180 83 187 23 18 94
11 252 -23z"/>
<path d="M3170 4141 c0 -6 5 -13 10 -16 6 -4 7 -11 4 -17 -4 -6 -2 -8 4 -5 12
8 4 47 -9 47 -5 0 -9 -4 -9 -9z"/>
<path d="M1109 2821 c-35 -36 -37 -61 -5 -98 20 -23 32 -28 69 -28 61 0 101
29 105 77 4 48 -32 78 -95 78 -36 0 -50 -6 -74 -29z"/>
<path d="M1940 2755 c-7 -9 -11 -18 -8 -20 3 -3 11 1 18 10 7 9 11 18 8 20 -3
3 -11 -1 -18 -10z"/>
<path d="M882 2589 c-85 -43 -62 -139 34 -139 32 0 80 25 88 45 10 28 7 82 -6
93 -28 22 -73 22 -116 1z"/>
</g>
</svg>
